<svg xmlns="http://www.w3.org/2000/svg" xmlns:xlink="http://www.w3.org/1999/xlink" width="559" zoomAndPan="magnify" viewBox="0 0 419.25 297.75" height="396" preserveAspectRatio="xMidYMid meet" version="1.0"><defs><g/><clipPath id="b167247268"><path d="M 116.191406 104.511719 L 293.832031 104.511719 L 293.832031 297.359375 L 116.191406 297.359375 Z M 116.191406 104.511719 " clip-rule="nonzero"/></clipPath><clipPath id="162ba8e108"><path d="M 159.386719 276.511719 L 250.699219 276.511719 L 250.699219 297.359375 L 159.386719 297.359375 Z M 159.386719 276.511719 " clip-rule="nonzero"/></clipPath></defs><g fill="#000000" fill-opacity="1"><g transform="translate(37.758516, 114.486101)"><g><path d="M 68.808594 -84.699219 C 65.0625 -96.992188 53.21875 -104.785156 40.625 -104.785156 C 23.386719 -104.785156 7.644531 -91.144531 0.601562 -76.003906 C -0.148438 -74.65625 -0.601562 -73.007812 1.800781 -72.105469 C 3.898438 -75.105469 6.144531 -77.953125 8.09375 -81.101562 C 13.941406 -90.695312 27.882812 -101.039062 39.726562 -101.039062 C 50.21875 -101.039062 58.613281 -89.796875 59.664062 -80.203125 C 60.113281 -74.804688 59.363281 -69.707031 58.015625 -64.460938 C 55.617188 -56.066406 50.667969 -49.921875 43.472656 -45.421875 C 42.273438 -44.523438 40.925781 -44.222656 39.726562 -44.222656 C 38.675781 -44.222656 37.628906 -44.375 36.578125 -44.972656 C 35.527344 -45.722656 34.480469 -46.472656 33.578125 -47.070312 C 34.328125 -55.015625 35.230469 -62.363281 35.679688 -69.707031 C 36.128906 -75.554688 36.277344 -81.402344 35.078125 -87.398438 C 34.328125 -90.394531 33.578125 -91.296875 30.433594 -91.59375 C 30.132812 -91.59375 29.832031 -91.59375 29.382812 -91.59375 C 26.683594 -91.59375 23.6875 -91.296875 23.386719 -87.996094 C 23.085938 -85.296875 23.085938 -82.75 23.085938 -80.050781 C 23.085938 -60.714844 19.9375 -41.824219 14.089844 -23.386719 C 12.59375 -18.4375 11.242188 -13.492188 9.894531 -8.394531 C 9.292969 -5.847656 9.742188 -4.648438 12.292969 -4.199219 C 13.792969 -3.898438 15.140625 -3.746094 16.640625 -3.746094 C 17.539062 -3.746094 18.4375 -3.898438 19.1875 -3.898438 C 21.136719 -4.046875 22.1875 -5.546875 22.785156 -7.496094 C 26.085938 -18.738281 29.230469 -29.980469 32.082031 -41.375 C 34.777344 -40.324219 37.476562 -39.875 40.027344 -39.875 C 44.375 -39.875 48.421875 -41.375 52.320312 -44.074219 C 54.71875 -45.574219 56.964844 -47.222656 59.214844 -48.71875 C 62.960938 -51.417969 65.0625 -55.167969 66.109375 -59.515625 C 66.558594 -61.164062 67.007812 -62.960938 67.609375 -64.609375 C 69.859375 -70.90625 69.257812 -77.351562 69.109375 -83.648438 C 69.109375 -83.949219 68.957031 -84.398438 68.808594 -84.699219 Z M 68.808594 -84.699219 "/></g></g></g><g fill="#000000" fill-opacity="1"><g transform="translate(110.314844, 114.486101)"><g><path d="M 41.976562 -44.824219 C 38.976562 -41.074219 35.828125 -37.175781 32.679688 -33.429688 C 30.730469 -31.03125 26.832031 -28.632812 24.433594 -28.03125 C 23.984375 -30.28125 25.035156 -32.082031 25.785156 -33.878906 C 26.832031 -36.429688 27.882812 -38.828125 28.933594 -41.226562 C 29.53125 -42.722656 29.082031 -43.921875 27.734375 -45.121094 C 26.234375 -46.320312 25.335938 -46.921875 24.285156 -46.921875 C 23.234375 -46.921875 22.1875 -46.320312 20.539062 -44.972656 C 17.238281 -42.425781 13.792969 -40.175781 10.34375 -37.777344 C 10.042969 -37.925781 9.742188 -38.226562 9.445312 -38.527344 C 11.242188 -47.820312 14.992188 -56.066406 21.886719 -62.8125 C 24.585938 -61.761719 25.933594 -60.113281 26.535156 -57.714844 C 26.832031 -56.066406 26.832031 -53.96875 28.78125 -53.21875 C 32.832031 -56.367188 32.832031 -61.613281 28.78125 -64.460938 C 25.785156 -66.558594 22.785156 -67.160156 19.1875 -67.160156 C 16.191406 -67.160156 13.792969 -66.410156 11.691406 -64.160156 C 8.09375 -60.5625 4.796875 -56.515625 2.25 -52.019531 C -0.300781 -47.371094 -1.347656 -42.574219 -0.75 -37.328125 C -0.601562 -35.078125 0.449219 -33.730469 2.398438 -32.980469 C 4.347656 -32.378906 6.144531 -31.929688 7.945312 -31.929688 C 10.34375 -31.929688 12.441406 -32.679688 14.542969 -34.628906 C 15.289062 -35.378906 16.339844 -35.828125 17.6875 -36.878906 C 16.640625 -32.980469 16.339844 -29.832031 17.539062 -26.683594 C 18.140625 -24.734375 19.488281 -23.6875 21.4375 -23.535156 C 24.285156 -23.535156 26.535156 -23.6875 29.082031 -25.335938 C 37.027344 -30.28125 43.625 -38.226562 49.019531 -45.871094 C 47.371094 -46.621094 46.320312 -47.070312 45.273438 -47.070312 C 44.074219 -47.070312 43.175781 -46.320312 41.976562 -44.824219 Z M 41.976562 -44.824219 "/></g></g></g><g fill="#000000" fill-opacity="1"><g transform="translate(152.43949, 114.486101)"><g><path d="M 40.925781 -47.820312 C 38.527344 -47.820312 37.027344 -47.222656 35.828125 -44.972656 C 31.03125 -35.976562 22.035156 -24.136719 14.390625 -16.941406 C 13.640625 -16.039062 12.742188 -15.289062 11.242188 -15.289062 C 11.242188 -15.289062 11.09375 -15.289062 10.945312 -15.289062 C 11.09375 -16.640625 11.242188 -17.839844 11.242188 -19.039062 C 11.242188 -23.6875 12.292969 -27.882812 14.242188 -31.929688 C 15.890625 -35.527344 17.089844 -39.125 18.4375 -42.722656 C 19.1875 -44.972656 18.589844 -46.171875 16.191406 -46.773438 C 14.542969 -47.222656 12.59375 -47.222656 10.945312 -47.671875 C 9.59375 -47.820312 8.246094 -48.421875 6.597656 -49.019531 C 8.84375 -52.320312 10.792969 -54.71875 12.292969 -57.414062 C 13.492188 -59.664062 14.390625 -62.0625 14.992188 -64.460938 C 15.589844 -66.859375 14.839844 -69.257812 12.59375 -70.609375 C 11.242188 -71.355469 9.742188 -71.808594 7.945312 -71.808594 C 4.648438 -71.808594 1.050781 -70.308594 -0.75 -67.910156 C -3.449219 -64.460938 -4.648438 -60.5625 -4.496094 -56.066406 C -4.347656 -47.671875 1.050781 -44.671875 8.246094 -43.175781 C 6.445312 -37.925781 4.496094 -32.832031 2.699219 -27.882812 C 1.5 -24.433594 0.449219 -20.988281 0.75 -17.238281 C 0.898438 -14.542969 2.25 -12.890625 4.496094 -11.992188 C 6.296875 -11.394531 8.09375 -10.945312 9.894531 -10.945312 C 16.640625 -10.945312 21.136719 -16.640625 24.886719 -21.585938 C 28.78125 -26.683594 32.679688 -31.78125 36.429688 -36.878906 C 38.078125 -39.125 39.425781 -41.375 40.625 -43.625 C 41.226562 -44.824219 41.976562 -46.320312 40.925781 -47.820312 Z M 3.449219 -53.519531 C 3.746094 -59.363281 2.546875 -64.910156 8.09375 -68.507812 C 10.34375 -64.3125 8.695312 -58.464844 3.449219 -53.519531 Z M 3.449219 -53.519531 "/></g></g></g><g fill="#000000" fill-opacity="1"><g transform="translate(188.118013, 114.486101)"><g><path d="M 41.976562 -44.824219 C 38.976562 -41.074219 35.828125 -37.175781 32.679688 -33.429688 C 30.730469 -31.03125 26.832031 -28.632812 24.433594 -28.03125 C 23.984375 -30.28125 25.035156 -32.082031 25.785156 -33.878906 C 26.832031 -36.429688 27.882812 -38.828125 28.933594 -41.226562 C 29.53125 -42.722656 29.082031 -43.921875 27.734375 -45.121094 C 26.234375 -46.320312 25.335938 -46.921875 24.285156 -46.921875 C 23.234375 -46.921875 22.1875 -46.320312 20.539062 -44.972656 C 17.238281 -42.425781 13.792969 -40.175781 10.34375 -37.777344 C 10.042969 -37.925781 9.742188 -38.226562 9.445312 -38.527344 C 11.242188 -47.820312 14.992188 -56.066406 21.886719 -62.8125 C 24.585938 -61.761719 25.933594 -60.113281 26.535156 -57.714844 C 26.832031 -56.066406 26.832031 -53.96875 28.78125 -53.21875 C 32.832031 -56.367188 32.832031 -61.613281 28.78125 -64.460938 C 25.785156 -66.558594 22.785156 -67.160156 19.1875 -67.160156 C 16.191406 -67.160156 13.792969 -66.410156 11.691406 -64.160156 C 8.09375 -60.5625 4.796875 -56.515625 2.25 -52.019531 C -0.300781 -47.371094 -1.347656 -42.574219 -0.75 -37.328125 C -0.601562 -35.078125 0.449219 -33.730469 2.398438 -32.980469 C 4.347656 -32.378906 6.144531 -31.929688 7.945312 -31.929688 C 10.34375 -31.929688 12.441406 -32.679688 14.542969 -34.628906 C 15.289062 -35.378906 16.339844 -35.828125 17.6875 -36.878906 C 16.640625 -32.980469 16.339844 -29.832031 17.539062 -26.683594 C 18.140625 -24.734375 19.488281 -23.6875 21.4375 -23.535156 C 24.285156 -23.535156 26.535156 -23.6875 29.082031 -25.335938 C 37.027344 -30.28125 43.625 -38.226562 49.019531 -45.871094 C 47.371094 -46.621094 46.320312 -47.070312 45.273438 -47.070312 C 44.074219 -47.070312 43.175781 -46.320312 41.976562 -44.824219 Z M 41.976562 -44.824219 "/></g></g></g><g fill="#000000" fill-opacity="1"><g transform="translate(230.242659, 114.486101)"><g><path d="M 60.714844 -47.371094 C 59.964844 -47.820312 59.0625 -47.972656 58.164062 -47.972656 C 56.515625 -47.820312 55.917969 -46.320312 55.316406 -45.121094 C 51.417969 -37.925781 47.671875 -30.582031 43.472656 -23.535156 C 41.675781 -20.386719 38.976562 -17.988281 36.726562 -15.140625 C 36.429688 -15.289062 36.277344 -15.289062 35.976562 -15.441406 C 35.679688 -18.140625 35.078125 -20.835938 34.929688 -23.535156 C 34.777344 -30.433594 34.777344 -37.328125 34.777344 -44.222656 C 34.777344 -45.421875 35.078125 -46.773438 35.527344 -47.972656 C 39.726562 -57.414062 44.074219 -66.710938 48.421875 -76.003906 C 50.820312 -81.101562 52.320312 -86.648438 53.367188 -92.195312 C 53.816406 -93.84375 53.667969 -95.792969 53.519531 -97.589844 C 53.066406 -100.890625 50.519531 -101.9375 47.519531 -101.9375 C 44.972656 -101.9375 42.875 -100.589844 40.925781 -98.941406 C 34.628906 -93.695312 30.28125 -86.796875 27.882812 -79.003906 C 26.085938 -73.007812 25.035156 -66.710938 23.6875 -60.5625 C 23.234375 -58.316406 22.9375 -56.066406 22.335938 -53.519531 C 21.4375 -54.265625 20.835938 -54.71875 20.386719 -55.167969 C 18.886719 -56.964844 16.488281 -57.863281 13.941406 -57.863281 C 12.144531 -57.863281 10.195312 -57.414062 8.542969 -56.214844 C 5.546875 -54.265625 3.296875 -51.867188 1.5 -48.71875 C -2.398438 -42.125 -3 -35.078125 -2.546875 -27.734375 C -2.25 -21.585938 3.597656 -19.488281 8.84375 -19.488281 C 14.691406 -19.488281 18.4375 -23.984375 21.4375 -28.484375 C 22.1875 -26.984375 22.335938 -25.785156 22.488281 -24.734375 C 23.234375 -19.339844 23.6875 -15.742188 27.734375 -11.691406 C 29.382812 -10.34375 31.632812 -9.59375 33.878906 -9.59375 C 36.726562 -9.59375 39.425781 -10.644531 41.074219 -12.890625 C 43.472656 -16.191406 46.023438 -19.488281 47.972656 -23.085938 C 52.320312 -30.28125 56.367188 -37.777344 60.414062 -45.121094 C 60.863281 -45.722656 61.011719 -47.070312 60.714844 -47.371094 Z M 21.738281 -38.078125 C 21.585938 -37.777344 21.585938 -37.328125 21.4375 -37.027344 C 20.539062 -34.480469 13.640625 -27.433594 10.042969 -25.632812 C 10.644531 -35.679688 9.742188 -45.421875 13.492188 -54.566406 C 16.789062 -53.816406 18.886719 -52.019531 20.089844 -49.46875 C 21.585938 -45.871094 22.035156 -41.976562 21.738281 -38.078125 Z M 47.371094 -96.691406 C 49.621094 -95.191406 49.320312 -92.945312 48.71875 -90.84375 C 46.773438 -82.601562 43.625 -75.253906 40.324219 -67.460938 C 39.726562 -66.109375 38.828125 -64.910156 38.078125 -63.410156 C 37.476562 -68.207031 43.625 -89.644531 47.371094 -96.691406 Z M 47.371094 -96.691406 "/></g></g></g><g fill="#000000" fill-opacity="1"><g transform="translate(285.559366, 114.486101)"><g><path d="M 32.53125 -46.472656 C 32.230469 -46.621094 31.929688 -46.773438 31.632812 -46.773438 C 31.03125 -46.773438 30.433594 -46.472656 29.832031 -46.320312 C 29.382812 -46.171875 28.933594 -45.574219 28.632812 -45.121094 C 27.132812 -42.875 25.933594 -40.625 24.433594 -38.375 C 21.886719 -34.628906 19.1875 -30.882812 16.488281 -27.132812 C 15.742188 -26.085938 14.390625 -25.183594 13.191406 -24.433594 C 12.59375 -24.136719 11.992188 -23.984375 11.242188 -23.984375 C 10.34375 -23.984375 9.445312 -24.285156 8.84375 -25.035156 C 8.09375 -25.785156 7.945312 -27.433594 8.09375 -28.632812 C 8.695312 -31.929688 9.59375 -35.230469 10.195312 -38.527344 C 11.242188 -43.023438 12.292969 -47.519531 13.042969 -52.019531 C 13.640625 -55.167969 12.292969 -56.816406 9.292969 -57.414062 C 8.394531 -57.566406 7.644531 -57.714844 6.894531 -57.714844 C 4.648438 -57.714844 3.148438 -56.515625 2.398438 -54.265625 C 1.648438 -51.417969 0.898438 -48.570312 0 -45.871094 C -1.5 -41.675781 -2.398438 -37.476562 -2.699219 -33.128906 C -2.847656 -29.832031 -2.097656 -27.132812 0.449219 -24.734375 C 3 -22.1875 5.398438 -21.738281 8.84375 -21.738281 C 14.542969 -21.738281 17.238281 -22.488281 19.789062 -25.632812 C 24.433594 -31.480469 28.933594 -37.476562 32.679688 -44.074219 C 33.128906 -44.824219 33.730469 -46.023438 32.53125 -46.472656 Z M 8.09375 -66.109375 C 10.34375 -66.109375 12.441406 -66.261719 14.542969 -66.859375 C 16.039062 -67.308594 16.488281 -68.660156 16.488281 -70.308594 C 16.339844 -71.957031 15.441406 -72.554688 13.792969 -72.707031 C 13.191406 -72.707031 12.59375 -72.707031 12.441406 -72.707031 C 9.144531 -72.707031 7.046875 -71.957031 6.144531 -70.15625 C 4.796875 -68.058594 5.695312 -66.109375 8.09375 -66.109375 Z M 8.09375 -66.109375 "/></g></g></g><g fill="#000000" fill-opacity="1"><g transform="translate(314.04224, 114.486101)"><g><path d="M 36.128906 -47.371094 C 35.679688 -47.972656 34.628906 -48.71875 33.878906 -48.570312 C 32.230469 -48.421875 30.433594 -48.121094 29.230469 -47.222656 C 26.234375 -44.972656 23.386719 -42.425781 20.539062 -40.027344 C 19.1875 -38.828125 17.839844 -37.777344 16.339844 -36.578125 C 13.941406 -40.175781 11.691406 -43.324219 9.59375 -46.621094 C 8.394531 -48.269531 8.09375 -49.921875 9.59375 -51.867188 C 12.742188 -55.765625 15.742188 -62.363281 15.890625 -67.308594 C 15.890625 -71.507812 12.441406 -72.554688 8.84375 -72.554688 C 6.894531 -72.554688 4.945312 -71.957031 3.296875 -70.609375 C -2.25 -66.261719 -3.449219 -59.964844 -2.699219 -53.667969 C -2.097656 -47.371094 3.746094 -35.679688 6.746094 -29.683594 C 4.046875 -27.582031 1.5 -25.632812 -0.898438 -23.386719 C -5.246094 -19.039062 -8.09375 -13.941406 -7.644531 -7.644531 C -7.195312 -2.398438 -2.398438 2.546875 2.847656 2.699219 C 10.195312 2.699219 19.636719 1.800781 22.785156 -5.996094 C 24.285156 -9.292969 23.835938 -12.742188 23.535156 -16.039062 C 22.9375 -21.4375 21.4375 -26.683594 19.039062 -31.632812 C 23.835938 -35.828125 28.484375 -39.875 33.128906 -43.773438 C 33.878906 -44.375 34.628906 -44.671875 35.230469 -45.273438 C 35.679688 -45.871094 36.429688 -47.070312 36.128906 -47.371094 Z M 9.292969 -69.558594 C 9.59375 -69.558594 9.894531 -69.558594 10.195312 -69.410156 C 10.792969 -69.257812 11.242188 -67.757812 11.394531 -66.710938 C 11.394531 -63.261719 9.292969 -58.613281 5.546875 -54.867188 C 5.246094 -58.765625 4.796875 -61.761719 4.945312 -64.910156 C 4.945312 -67.007812 7.046875 -69.558594 9.292969 -69.558594 Z M 5.398438 -0.898438 C 1.800781 -0.75 -1.347656 -3.898438 -1.949219 -7.945312 C -2.546875 -12.742188 -0.449219 -16.488281 2.546875 -19.789062 C 4.347656 -21.738281 6.597656 -23.386719 9.144531 -25.484375 C 12.144531 -19.9375 13.640625 -14.542969 13.640625 -8.695312 C 13.640625 -4.496094 9.894531 -1.050781 5.398438 -0.898438 Z M 5.398438 -0.898438 "/></g></g></g><g fill="#000000" fill-opacity="1"><g transform="translate(344.623818, 114.486101)"><g><path d="M 36.578125 -44.671875 C 35.378906 -42.722656 34.179688 -40.777344 32.53125 -39.125 C 29.082031 -35.527344 25.335938 -31.929688 21.585938 -28.484375 C 19.488281 -26.535156 16.789062 -25.785156 13.941406 -25.484375 C 11.542969 -25.484375 10.644531 -25.933594 10.492188 -28.484375 C 10.042969 -33.28125 9.59375 -38.226562 14.691406 -41.226562 C 15.589844 -41.824219 16.339844 -42.722656 17.089844 -43.472656 C 21.738281 -46.621094 23.835938 -51.269531 25.035156 -56.367188 C 25.785156 -59.8125 24.886719 -61.3125 21.289062 -61.761719 C 20.386719 -61.914062 19.488281 -61.914062 18.738281 -61.914062 C 5.847656 -61.914062 0.449219 -49.171875 -1.949219 -38.527344 C -2.398438 -36.726562 -2.546875 -34.777344 -2.398438 -32.832031 C -1.648438 -24.433594 4.199219 -21.136719 11.84375 -21.136719 C 17.839844 -21.136719 23.085938 -23.234375 27.285156 -28.183594 C 29.382812 -30.730469 31.929688 -33.128906 34.179688 -35.679688 C 36.429688 -38.078125 38.527344 -40.777344 40.625 -43.472656 C 41.226562 -44.375 41.523438 -45.574219 42.125 -47.222656 C 39.578125 -47.222656 37.925781 -46.921875 36.578125 -44.671875 Z M 22.035156 -58.316406 C 21.585938 -52.167969 18.738281 -47.371094 13.042969 -44.074219 C 13.191406 -44.671875 13.042969 -45.273438 13.34375 -45.722656 C 14.839844 -49.46875 16.339844 -53.21875 17.988281 -56.964844 C 18.589844 -58.316406 18.886719 -58.765625 19.789062 -58.765625 C 20.386719 -58.765625 20.988281 -58.613281 22.035156 -58.316406 Z M 22.035156 -58.316406 "/></g></g></g><g clip-path="url(#b167247268)"><path fill="#000000" d="M 268.398438 205.734375 C 268.398438 205.734375 277.378906 201.398438 293.835938 209.527344 C 293.835938 209.527344 282.527344 193.246094 263.410156 198.699219 C 263.410156 198.699219 261.5625 181.632812 239.171875 177.585938 C 239.171875 177.585938 252.589844 184.765625 255.292969 198.578125 C 255.292969 198.578125 234.90625 177.425781 213.851562 192.898438 C 213.851562 192.898438 232.183594 189.941406 251.535156 203.078125 C 251.535156 203.078125 220.183594 200.628906 222.429688 230.566406 C 222.429688 230.566406 231.445312 211.347656 253.390625 210.125 C 230.28125 235.605469 217.867188 266.496094 212.171875 284.183594 C 213.21875 258.039062 212.191406 200.414062 188.480469 146.050781 C 224.417969 159.070312 224.925781 184.632812 224.925781 184.632812 C 240.542969 144.445312 194.707031 136.601562 194.707031 136.601562 C 229.703125 126.898438 255.210938 140.375 255.210938 140.375 C 231.902344 107.128906 191.410156 128.113281 191.410156 128.113281 C 202.238281 109.132812 225.546875 105.242188 225.546875 105.242188 C 190.585938 100.054688 179.402344 124.25 179.402344 124.25 C 153.976562 106.714844 129.257812 125.046875 129.257812 125.046875 C 157.507812 121.277344 168.574219 132.121094 168.574219 132.121094 C 111.132812 132.121094 116.308594 181.988281 116.308594 181.988281 C 128.792969 150.976562 163.394531 149.097656 163.394531 149.097656 C 140.558594 194.601562 175.636719 214.878906 175.636719 214.878906 C 158.871094 184.632812 179.195312 153.660156 181.34375 150.535156 C 189.234375 175.464844 205.566406 239.820312 186.058594 297.476562 L 223.878906 297.476562 C 225.847656 260.46875 247.351562 227.269531 256.824219 214.332031 C 257.492188 216.683594 263.519531 239.765625 247.070312 254.761719 C 247.070312 254.761719 272.640625 249.625 268.066406 217.15625 C 268.066406 217.15625 288.789062 225.441406 290.023438 246.929688 C 290.023438 246.929688 303.4375 217.582031 268.398438 205.734375 " fill-opacity="1" fill-rule="nonzero"/></g><g clip-path="url(#162ba8e108)"><path fill="#000000" d="M 159.648438 297.90625 C 159.648438 297.90625 176.605469 279.175781 190.941406 283.375 C 190.941406 283.375 200.203125 271.207031 212.96875 279.875 C 212.96875 279.875 218.789062 275.003906 222.582031 281.625 C 228.875 292.613281 245.277344 283.988281 250.378906 297.90625 L 159.648438 297.90625 " fill-opacity="1" fill-rule="nonzero"/></g></svg>